<?xml version="1.0" encoding="utf-8"?>
<!-- Generator: Adobe Illustrator 20.1.0, SVG Export Plug-In . SVG Version: 6.00 Build 0)  -->
<svg version="1.1"  xmlns="http://www.w3.org/2000/svg" xmlns:xlink="http://www.w3.org/1999/xlink" x="0px" y="0px"
	 viewBox="0 0 48 48" enable-background="new 0 0 48 48" xml:space="preserve">
<polygon fill="#BBDEFB" points="26,30 26,32 24,32 24,44 29,44 29,30 "/>
<polygon fill="#BBDEFB" points="43,30 43,28 41,28 41,30 40,30 40,43 44,43 44,30 "/>
<rect x="10" y="30" fill="#BBDEFB" width="5" height="14"/>
<polygon fill="#BBDEFB" points="34,29 34,26 32,26 32,25 31,25 31,26 30,27 30,41 36,41 36,29 "/>
<polygon fill="#64B5F6" points="8,34 8,31 7,31 7,30 6,30 6,29 4,29 4,44 11,44 11,34 "/>
<polygon fill="#64B5F6" points="21.5,32 18,33.8 18,37 14,37 14,36 13,36 13,37 13,44 25,44 25,33.8 "/>
<path fill="#64B5F6" d="M43,36v1h-1v-0.5c0-1.4-1.3-2.5-3-2.7c0,0,0,0,0,0c0-0.4-0.2-0.8-0.5-0.8S38,33.3,38,33.8c0,0,0,0,0,0
	c-1.7,0.2-3,1.3-3,2.7V37h-1v-1h-1v-6l-6,3.3V44h17v-7v-1H43z"/>
<polygon fill="#BDBDBD" points="19,44 16,44 16.4,18 18.6,18 "/>
<polygon fill="#BDBDBD" points="17.3,7.6 17.2,11.8 17.8,11.8 17.7,7.6 "/>
<polygon fill="#E53935" points="17,16 18,16 17.8,11.8 17.2,11.8 "/>
<polygon fill="#E53935" points="17.5,2 17.3,7.6 17.7,7.6 "/>
<rect x="15.7" y="15" fill="#9E9E9E" width="3.5" height="4"/>
<rect x="15.7" y="15" fill="#BDBDBD" width="3.5" height="1"/>
<path fill="#9E9E9E" d="M21.6,24.4h-8.1c-0.1-0.2-0.2-0.4-0.2-0.6c0.6,1.8,2.3,3.1,4.3,3.1c2,0,3.7-1.3,4.3-3.1
	C21.7,24.1,21.6,24.3,21.6,24.4z"/>
<path fill="#BDBDBD" d="M21.9,23.1c0,0.2-0.1,0.4-0.1,0.6c0.1-0.4,0.2-0.8,0.2-1.2c0-2.5-2-4.5-4.5-4.5S13,20,13,22.5
	c0,0.4,0.1,0.9,0.2,1.3c-0.1-0.2-0.1-0.4-0.1-0.6H21.9z"/>
<path fill="#9E9E9E" d="M19.1,29.2h-3.1c-0.3,0-0.5-0.2-0.5-0.5l0,0c0-0.3,0.2-0.5,0.5-0.5h3.1c0.3,0,0.5,0.2,0.5,0.5l0,0
	C19.6,29,19.3,29.2,19.1,29.2z"/>
<path fill="#9E9E9E" d="M19.1,31.2h-3.1c-0.3,0-0.5-0.2-0.5-0.5l0,0c0-0.3,0.2-0.5,0.5-0.5h3.1c0.3,0,0.5,0.2,0.5,0.5l0,0
	C19.6,31,19.3,31.2,19.1,31.2z"/>
<path fill="#FFD740" d="M15.8,24.4h4.2c0.1-0.4,0.2-0.8,0.2-1.3h-4.6C15.6,23.6,15.7,24,15.8,24.4z"/>
<path fill="#FB8C00" d="M16.2,23.1H15c0,0.5,0.1,0.9,0.3,1.3h1.2C16.3,24,16.3,23.6,16.2,23.1z"/>
<path fill="#FFD740" d="M13.1,23.1c0,0.2,0.1,0.4,0.1,0.6c0,0,0,0.1,0,0.1c0.1,0.2,0.1,0.4,0.2,0.6h1.2c-0.1-0.4-0.2-0.8-0.3-1.3
	H13.1z"/>
<path fill="#FFECB3" d="M15.6,23.1h-1.3c0,0.5,0.1,0.9,0.3,1.3h1.2C15.7,24,15.6,23.6,15.6,23.1z"/>
<path fill="#FB8C00" d="M21.8,23.7c0.1-0.2,0.1-0.4,0.1-0.6h-1.8c0,0.5-0.1,0.9-0.2,1.3h1.6c0.1-0.2,0.2-0.4,0.2-0.6
	C21.8,23.8,21.8,23.8,21.8,23.7C21.8,23.8,21.8,23.8,21.8,23.7z"/>
</svg>
