<?xml version="1.0" encoding="iso-8859-1"?>
<!-- Generator: Adobe Illustrator 19.0.0, SVG Export Plug-In . SVG Version: 6.00 Build 0)  -->
<svg version="1.1" id="Layer_1" xmlns="http://www.w3.org/2000/svg" xmlns:xlink="http://www.w3.org/1999/xlink" x="0px" y="0px"
	 viewBox="0 0 512 512" style="enable-background:new 0 0 512 512;" xml:space="preserve">
<polygon style="fill:#EFC27B;" points="61.979,208.573 61.979,165.457 137.432,165.457 202.106,208.573 363.789,208.573 
	363.789,359.478 61.979,359.478 "/>
<rect x="247.916" y="208.573" style="fill:#F7790E;" width="115.874" height="150.905"/>
<polygon style="fill:#F6E27D;" points="181.035,311.058 167.9,197.794 493.137,197.794 493.137,256.663 299.116,316.362 "/>
<polygon style="fill:#EFC27B;" points="247.916,197.794 247.916,314.062 299.116,316.362 493.137,256.663 493.137,197.794 "/>
<path style="fill:#58575D;" d="M485.986,185.491c-12.871-11.896-13.461-6.352-30.12-19.426
	c-8.124-6.377-14.854-16.969-25.547-24.345c-9.286-6.407-22.013-9.381-32.589-15.567c-10.193-5.96-18.568-15.363-29.413-20.291
	c-11.15-5.066-24.198-5.373-35.462-8.48c-12.165-3.355-23.561-9.533-35.153-9.533c-8.931,0-16.237,5.738-23.696,8.494
	c-7.872,2.908-17.34,3.492-23.685,8.547c-6.338,5.05-8.535,13.836-13.462,20.082c-5.05,6.402-13.351,10.931-17.042,17.585
	c-4.159,7.501-3.23,16.575-5.826,23.023c-5.179,12.866-9.156,9.62-11.885,20.969"/>
<path style="fill:#797781;" d="M314.992,105.356c-6.338,5.05-8.534,13.836-13.461,20.082c-5.05,6.402-13.352,10.931-17.042,17.585
	c-4.157,7.501-3.229,16.574-5.825,23.023c-5.142,12.771-9.097,9.675-11.823,20.729l-64.736,0.24
	c2.729-11.349,6.706-8.104,11.885-20.969c2.596-6.448,1.666-15.522,5.826-23.023c3.691-6.654,11.992-11.183,17.042-17.585
	c4.928-6.246,7.124-15.032,13.462-20.082c6.344-5.054,15.813-5.637,23.685-8.547c7.46-2.756,14.765-8.494,23.696-8.494
	c11.593,0,22.988,6.176,35.153,9.533c0.459,0.126,0.925,0.241,1.388,0.36C327.458,100.078,320.181,101.223,314.992,105.356z"/>
<path style="fill:#F8E99B;" d="M51.2,143.899h97.011l32.337,32.337h312.589c5.953,0,10.779,4.826,10.779,10.779v10.779
	c0,5.953-4.826,10.779-10.779,10.779H169.768l-32.337-32.337H51.2c-5.953,0-10.779-4.826-10.779-10.779v-10.779
	C40.421,148.725,45.247,143.899,51.2,143.899z"/>
<circle style="fill:#58575D;" cx="363.789" cy="359.478" r="64.674"/>
<circle style="fill:#EDEDED;" cx="363.789" cy="359.478" r="21.558"/>
<circle style="fill:#797781;" cx="137.432" cy="359.478" r="64.674"/>
<circle style="fill:#F8F8F9;" cx="137.432" cy="359.478" r="21.558"/>
<path style="fill:#797781;" d="M212.884,305.583h75.453c5.953,0,10.779,4.022,10.779,8.982v35.929c0,4.962-4.826,8.982-10.779,8.982
	h-75.453c-5.953,0-10.779-4.022-10.779-8.982v-35.929C202.105,309.605,206.931,305.583,212.884,305.583z"/>
<rect x="18.863" y="176.236" style="fill:#B4D8F1;" width="97.011" height="32.337"/>
<path style="fill:#F6E27D;" d="M18.863,208.573h118.568l10.779,86.232H72.758v64.674H8.084V219.352
	C8.084,213.398,12.91,208.573,18.863,208.573z"/>
<polygon style="fill:#F8F8F9;" points="144.168,262.467 8.084,262.467 8.084,230.131 140.126,230.131 "/>
<path style="fill:#F6E27D;" d="M493.137,176.236H247.916v32.337h245.221c5.953,0,10.779-4.826,10.779-10.779v-10.779
	C503.916,181.062,499.09,176.236,493.137,176.236z"/>
<path style="fill:#58575D;" d="M288.337,305.583h-40.421v53.895h40.421c5.953,0,10.779-4.022,10.779-8.982v-35.929
	C299.116,309.605,294.29,305.583,288.337,305.583z"/>
<g>
	<path style="fill:#2E2D31;" d="M334.147,359.478c0,16.345,13.297,29.642,29.642,29.642c16.344,0,29.642-13.297,29.642-29.642
		c0-16.345-13.297-29.642-29.642-29.642S334.147,343.134,334.147,359.478z M350.316,359.478c0-7.43,6.044-13.474,13.474-13.474
		s13.474,6.044,13.474,13.474s-6.044,13.474-13.474,13.474C356.361,372.952,350.316,366.908,350.316,359.478z"/>
	<path style="fill:#2E2D31;" d="M107.789,359.478c0,16.345,13.297,29.642,29.642,29.642c16.345,0,29.642-13.297,29.642-29.642
		c0-16.345-13.297-29.642-29.642-29.642C121.086,329.836,107.789,343.134,107.789,359.478z M123.958,359.478
		c0-7.43,6.044-13.474,13.474-13.474s13.474,6.044,13.474,13.474s-6.044,13.474-13.474,13.474S123.958,366.908,123.958,359.478z"/>
	<path style="fill:#2E2D31;" d="M0,208.573v53.895v97.011c0,4.465,3.62,8.084,8.084,8.084h57.05
		c2.17,19.535,12.102,36.754,26.637,48.505H72.758c-4.465,0-8.084,3.62-8.084,8.084s3.62,8.084,8.084,8.084h355.705
		c4.465,0,8.084-3.62,8.084-8.084s-3.62-8.084-8.084-8.084h-19.014c16.513-13.349,27.098-33.752,27.098-56.589
		c0-30.742-19.174-57.07-46.181-67.709l105.148-32.353c3.392-1.043,5.707-4.178,5.707-7.727v-35.032h2.695
		c4.465,0,8.084-3.62,8.084-8.084v-32.337c0-4.465-3.62-8.084-8.084-8.084h-26.028c-6.955-6.093-10.955-7.737-14.82-9.316
		c-3.206-1.31-6.52-2.665-13.383-7.832c-2.763-2.08-5.634-5.124-8.674-8.347c-4.447-4.716-9.489-10.06-15.947-14.325
		c-5.442-3.594-11.563-5.853-17.482-8.038c-4.722-1.743-9.182-3.389-13.179-5.619c-3.573-1.993-7.06-4.701-10.752-7.568
		c-5.29-4.109-10.762-8.357-17.351-11.2c-7.191-3.103-14.561-4.112-21.689-5.087c-4.178-0.571-8.124-1.111-11.707-2.044
		c-3.523-0.916-7.03-2.202-10.746-3.564c-7.31-2.677-14.869-5.448-23.041-5.448c-6.982,0-12.826,2.985-17.522,5.382
		c-2.103,1.074-4.09,2.088-5.815,2.663c-2.073,0.691-4.498,1.132-7.066,1.6c-5.264,0.958-11.23,2.044-16.368,5.779
		c-4.985,3.626-7.858,8.672-10.392,13.124c-1.348,2.369-2.621,4.607-3.986,6.209c-1.583,1.858-3.816,3.617-6.18,5.482
		c-3.714,2.928-7.925,6.245-10.708,10.955c-3.101,5.245-4.081,10.988-4.868,15.603c-0.453,2.655-0.881,5.163-1.569,6.788
		c-1.848,4.353-3.193,5.788-4.751,7.453c-1.946,2.076-3.643,4.082-5.082,7.352h-20.912l-29.969-29.969
		c-1.516-1.517-3.572-2.368-5.716-2.368H40.422c-4.465,0-8.084,3.62-8.084,8.084v24.252H18.863c-4.465,0-8.084,3.62-8.084,8.084
		v24.253H8.084C3.62,200.488,0,204.108,0,208.573z M16.168,270.552h16.168v16.168H16.168V270.552z M32.337,319.057H16.168v-16.168
		h16.168V319.057z M26.947,184.32h13.474h2.695v16.168H26.947V184.32z M59.284,200.488V184.32h16.168v16.168H59.284z
		 M91.621,200.488V184.32h16.168v16.168H91.621z M123.958,200.488V184.32h10.126l25.875,25.875l10.851,84.665
		c-4.778-2.478-9.854-4.458-15.174-5.835l-10.182-81.457c-0.506-4.045-3.945-7.082-8.022-7.082h-13.475V200.488z M291.032,351.394
		h-80.842v-37.726h80.842V351.394z M445.986,168.152H224.837c1.447-1.965,3.043-4.611,4.688-8.486
		c1.427-3.362,2.036-6.934,2.626-10.388c0.65-3.814,1.264-7.415,2.848-10.092c1.246-2.109,3.943-4.234,6.798-6.485
		c2.745-2.163,5.856-4.616,8.479-7.694c2.354-2.763,4.07-5.779,5.731-8.695c1.894-3.327,3.682-6.471,5.849-8.045
		c2.154-1.566,5.845-2.238,9.755-2.949c3.009-0.548,6.122-1.115,9.284-2.169c2.88-0.96,5.509-2.302,8.053-3.601
		c3.639-1.858,7.076-3.614,10.169-3.614c5.303,0,11.217,2.167,17.479,4.461c3.913,1.435,7.959,2.917,12.238,4.03
		c4.512,1.173,9.124,1.804,13.585,2.414c6.332,0.867,12.313,1.685,17.476,3.913c4.701,2.029,9.139,5.476,13.841,9.125
		c4.004,3.111,8.147,6.326,12.79,8.917c5.096,2.843,10.363,4.787,15.456,6.668c5.291,1.953,10.289,3.797,14.172,6.363
		c4.894,3.232,9.063,7.652,13.094,11.927c3.525,3.736,6.852,7.265,10.71,10.169C442.224,165.625,444.209,167.005,445.986,168.152z
		 M495.832,200.488H173.117l-29.969-29.969c-1.516-1.517-3.572-2.368-5.716-2.368H48.505v-16.168h96.357l29.969,29.969
		c1.516,1.517,3.572,2.368,5.716,2.368h315.284V200.488z M485.053,245.718l-179.354,55.185c-1.465-2.058-3.865-3.404-6.583-3.404
		h-97.011c-4.465,0-8.084,3.62-8.084,8.084v2.695h-2.695c-0.695,0-1.366,0.097-2.008,0.262c-0.177-0.18-0.347-0.366-0.525-0.544
		l-11.707-91.339h307.966V245.718z M363.789,416.067c-31.204,0-56.589-25.385-56.589-56.589s25.385-56.589,56.589-56.589
		c31.203,0,56.589,25.385,56.589,56.589S394.993,416.067,363.789,416.067z M183.092,416.067
		c14.535-11.751,24.467-28.971,26.637-48.505h81.762c2.171,19.535,12.103,36.754,26.638,48.505H183.092z M80.842,359.478
		c0-31.204,25.385-56.589,56.589-56.589s56.589,25.385,56.589,56.589s-25.385,56.589-56.589,56.589S80.842,390.682,80.842,359.478z
		 M80.842,302.888h10.929c-4.017,3.248-7.681,6.911-10.929,10.929V302.888z M64.674,294.804v56.589H48.505v-88.926
		c0-4.465-3.62-8.084-8.084-8.084H16.168v-37.726h114.126l8.758,70.063H72.758C68.293,286.72,64.674,290.34,64.674,294.804z
		 M16.168,351.394v-16.168h16.168v16.168H16.168z"/>
	<path style="fill:#2E2D31;" d="M234.442,259.773c-4.465,0-8.084-3.62-8.084-8.084s3.62-8.084,8.084-8.084h129.347
		c4.465,0,8.084,3.62,8.084,8.084s-3.62,8.084-8.084,8.084H234.442z"/>
</g>
<g>
</g>
<g>
</g>
<g>
</g>
<g>
</g>
<g>
</g>
<g>
</g>
<g>
</g>
<g>
</g>
<g>
</g>
<g>
</g>
<g>
</g>
<g>
</g>
<g>
</g>
<g>
</g>
<g>
</g>
</svg>
