<?xml version="1.0" encoding="utf-8"?>
<!-- Generator: Adobe Illustrator 19.1.0, SVG Export Plug-In . SVG Version: 6.00 Build 0)  -->
<svg version="1.1" id="Layer_1" xmlns="http://www.w3.org/2000/svg" xmlns:xlink="http://www.w3.org/1999/xlink" x="0px" y="0px"
	 viewBox="0 0 120 127.5" style="enable-background:new 0 0 120 127.5;" xml:space="preserve">
<style type="text/css">
	.st0{fill:#88C5CC;}
	.st1{fill:#CD584C;}
	.st2{fill:#C05447;}
	.st3{fill:#9A433A;}
	.st4{fill:#B44F43;}
	.st5{fill:#F5F6F6;}
	.st6{fill:#B44E44;}
	.st7{fill:#A8493E;}
	.st8{fill:#818181;}
	.st9{fill:#B4B4B4;}
	.st10{fill:#A7A6A6;}
	.st11{fill:#273841;}
	.st12{fill:#E78343;}
	.st13{fill:#FFD465;}
	.st14{fill:#1D8159;}
	.st15{fill:#FEE299;}
	.st16{fill:#FFF2CD;}
</style>
<g>
	<circle class="st0" cx="60" cy="60" r="60"/>
	<rect x="27" y="115.5" class="st1" width="59" height="12"/>
	<rect x="82" y="115.5" class="st2" width="4" height="12"/>
	<path class="st1" d="M82,115.5V32c0-3.3-2.2-6.5-5.5-6.5h-39c-3.3,0-6.5,3.2-6.5,6.5v83.5H82z"/>
	<path class="st2" d="M76.5,25.5h-3c3.3,0,5.5,3.2,5.5,6.5v83.5h3V32C82,28.7,79.8,25.5,76.5,25.5z"/>
	<path class="st3" d="M78,49c0,3.9-3.1,6.5-7,6.5H42c-3.9,0-7-2.6-7-6.5V37c0-3.9,2.1-7.5,6-7.5h30c3.9,0,7,3.6,7,7.5V49z"/>
	<path class="st4" d="M82,68.5h2.5c0.5,0,0.5,0.9,0.5,1.5v8c0,0.5,0,0.5-0.5,0.5H82V68.5z"/>
	<path class="st5" d="M71,30.5H41c-3,0-5,3.5-5,6.5v4v4v4c0,3.3,3.2,5.5,6.5,5.5h29c3.3,0,5.5-2.2,5.5-5.5v-4v-4v-4
		C77,33.7,74.3,30.5,71,30.5z"/>
	<rect x="31" y="114.5" class="st6" width="51" height="1"/>
	<path class="st4" d="M93,108c-3.3,0-6-2.7-6-6V78c0-0.9-0.9-2-1.7-2c-1.1,0-1.9-0.9-1.9-2c0-1.1,0.7-2,1.8-2c3.1,0,5.8,2.9,5.8,6
		v24c0,1.1,0.9,2,2,2c1.1,0,2-0.9,2-2V65c0-1.1,0.9-2,2-2s2,0.9,2,2v37C99,105.3,96.3,108,93,108z"/>
	<path class="st7" d="M89,78v24c0,1.1,1.1,2,2.3,2c0.4,0,0.6-0.1,0.9-0.3c-0.6-0.3-1.1-1-1.1-1.7V78c0-3.1-2.7-6-5.7-6
		c-0.3,0-0.7,0.1-0.9,0.2C86.9,72.8,89,75.3,89,78z"/>
	<path class="st7" d="M97.2,63c-0.4,0-0.8,0.1-1.1,0.3c0.6,0.3,0.9,1,0.9,1.7v37c0,3-1.9,5.4-4.7,5.9c0.3,0.1,0.5,0.1,0.9,0.1
		c3.3,0,5.9-2.7,5.9-6V65C99,63.9,98.4,63,97.2,63z"/>
	<path class="st8" d="M97,53c-1.1,0-2-0.9-2-2v-6.8l-2.6-1.4c-1-0.5-1.3-1.7-0.8-2.7c0.5-1,1.8-1.4,2.7-0.9l3.8,2
		c0.7,0.3,0.9,1,0.9,1.8v8C99,52.1,98.1,53,97,53z"/>
	<path class="st9" d="M102,62.5c0,1.7-1.3,3-3,3h-4c-1.7,0-3-1.3-3-3v-11c0-1.7,1.3-3,3-3h4c1.7,0,3,1.3,3,3V62.5z"/>
	<path class="st10" d="M102,49c0-0.3-0.2-0.5-0.5-0.5l0,0c-0.3,0-0.5,0.2-0.5,0.5v16c0,0.3,0.2,0.5,0.5,0.5l0,0
		c0.3,0,0.5-0.2,0.5-0.5V49z"/>
	<rect x="40" y="47.5" class="st11" width="34" height="1"/>
	<rect x="40" y="41.5" class="st1" width="4" height="6"/>
	<rect x="44" y="41.5" class="st12" width="10" height="6"/>
	<rect x="54" y="41.5" class="st13" width="12" height="6"/>
	<rect x="66" y="41.5" class="st14" width="8" height="6"/>
	<polygon class="st1" points="63.5,38.5 61.5,41.5 59.5,38.5 	"/>
	<path class="st15" d="M57,76c-4,3-8,8.6-8,13c0,4.4,3.6,8,8,8c4.4,0,8-3.6,8-8C65,84.6,61,79,57,76z"/>
	<path class="st16" d="M64.8,90.6c-5.4,2.8-10.9-3-14.6-6.4C49.5,85.8,49,87.5,49,89c0,4.4,3.6,8,8,8C60.9,97,64.1,94.3,64.8,90.6z"
		/>
</g>
</svg>
