<?xml version="1.0" encoding="utf-8"?>
<!-- Generator: Adobe Illustrator 19.1.0, SVG Export Plug-In . SVG Version: 6.00 Build 0)  -->
<svg version="1.1" id="Layer_1" xmlns="http://www.w3.org/2000/svg" xmlns:xlink="http://www.w3.org/1999/xlink" x="0px" y="0px"
	 viewBox="-214 216 70 70" style="enable-background:new -214 216 70 70;" xml:space="preserve">
<style type="text/css">
	.st0{fill:#5b358c;}
</style>
<g id="Layer_5">
	<g>
		<path class="st0" d="M-145.1,276.4v-1.1c0-0.5-0.4-0.8-0.8-0.8h-5.7v-6.4h0.4c0.5,0,0.8-0.4,0.8-0.8v-0.6c0-0.5-0.4-0.8-0.8-0.8
			h-2v-19.4l0.3-0.2c0.3-0.3,0.4-0.8,0.2-1.1l-6.9-13.3c-0.2-0.4-0.6-0.8-0.9-1.1l-8.2-5.8c-0.4-0.2-0.8-0.2-1.2,0.1l-1.6,1.5
			c-0.3,0.3-0.4,0.8-0.2,1.2l3.4,7.1l-1.3,1.1c-0.3,0.3-0.4,0.8-0.1,1.1l-12.9,10.5l0,0l0,0l-9.8,8.1l-0.4-0.5
			c-0.2-0.3-0.7-0.4-1-0.1l-0.2,0.1l-1.9-2.4l0,0l0,0l0,0l0,0c-0.1-0.1-0.2-0.1-0.3-0.2c-0.2-0.1-0.5-0.1-0.7,0.1l-4.7,3.4
			c-0.4-0.1-0.7-0.2-1.1-0.2c-1.9,0-3.4,1.5-3.4,3.4v15.2h-5.9c-0.5,0-0.8,0.4-0.8,0.8v1.1c0,0.5,0.4,0.8,0.8,0.8h66
			C-145.5,277.3-145.1,276.9-145.1,276.4z M-167.9,239.3L-167.9,239.3c0.4,0.4,0.9,0.5,1.3,0.2l1-0.9l10.6,8.2
			c0.2,0.1,0.4,0.2,0.6,0.2v18.7h-2c-0.5,0-0.8,0.4-0.8,0.8v0.6c0,0.5,0.4,0.8,0.8,0.8h0.4v6.4h-10.3l-9.2-28.9L-167.9,239.3z
			 M-177.7,263.4l-4-2.3h7.5L-177.7,263.4z M-173.5,261.9l1.5,4.8l-4.7-2.7L-173.5,261.9z M-181.8,258.9l1.9-9.7l1.9-1.5l3.6,11.2
			H-181.8z M-182.4,261.9l3.7,2.2l-4.8,3.2L-182.4,261.9z M-177.6,264.6l5.9,3.4h-11.1L-177.6,264.6z M-196.5,254.1l1.4,1.7
			l-3.1-0.4L-196.5,254.1z M-202.7,262.7c0.9,0,1.7-0.4,2.3-0.9v12.5h-4.7v-12.5C-204.5,262.4-203.6,262.7-202.7,262.7z
			 M-199.3,259.3c0-1-0.4-1.8-1-2.4l1.1-0.8l3.5,0.5l-2.6,2c-0.3,0.2-0.4,0.7-0.1,1l2.5,3.3c0.2,0.3,0.7,0.4,1,0.1l4.5-3.5
			c0.3-0.2,0.4-0.7,0.1-1l-0.3-0.3l6.9-5.8l-4.3,22.1h-11.3V259.3z M-184.9,274.5l0.9-4.3h13.2l1.4,4.3H-184.9z"/>
		<path class="st0" d="M-180.2,240.2l-4.4,3.7c-0.4,0.3-0.4,0.8-0.1,1.2l0.7,0.9c0.3,0.4,0.8,0.4,1.2,0.1l4.4-3.7
			c0.4-0.3,0.4-0.8,0.1-1.2l-0.7-0.9C-179.3,239.9-179.8,239.9-180.2,240.2z"/>
	</g>
</g>
</svg>
